ffmpeg started on 2016-11-28 at 05:02:11
Report written to "Output/NVENCh264/results/ffmpeg/old_town_cross_2160p50llhp10000k.log"
Command line:
Tools/ffmpeg/ffmpeg -benchmark -y -i Input/y4m/old_town_cross_2160p50.y4m -c:v h264_nvenc -preset llhp -b:v 10000k -an Output/NVENCh264/encoded/old_town_cross_2160p50llhp10000k.mkv
ffmpeg version N-82227-gdb23fde Copyright (c) 2000-2016 the FFmpeg developers
  built with gcc 5.4.0 (Ubuntu 5.4.0-6ubuntu1~16.04.2) 20160609
  configuration: --prefix=/home/jaroslav/ffmpeg_build --pkg-config-flags=--static --extra-cflags=-I/home/jaroslav/ffmpeg_build/include --extra-ldflags=-L/home/jaroslav/ffmpeg_build/lib --bindir=/home/jaroslav/bin --enable-gpl --enable-libass --enable-libfdk-aac --enable-libfreetype --enable-libmp3lame --enable-libopus --enable-libtheora --enable-libvorbis --enable-libvpx --enable-libx264 --enable-libx265 --enable-nvenc --enable-libmfx --enable-libxvid --enable-libgsm --enable-libopencore-amrnb --enable-version3 --enable-nonfree
  libavutil      55. 35.100 / 55. 35.100
  libavcodec     57. 66.101 / 57. 66.101
  libavformat    57. 57.100 / 57. 57.100
  libavdevice    57.  2.100 / 57.  2.100
  libavfilter     6. 66.100 /  6. 66.100
  libswscale      4.  3.100 /  4.  3.100
  libswresample   2.  4.100 /  2.  4.100
  libpostproc    54.  2.100 / 54.  2.100
Input #0, yuv4mpegpipe, from 'Input/y4m/old_town_cross_2160p50.y4m':
  Duration: 00:00:10.00, start: 0.000000, bitrate: 4976642 kb/s
    Stream #0:0: Video: rawvideo (I420 / 0x30323449), yuv420p(progressive), 3840x2160, SAR 1:1 DAR 16:9, 50 fps, 50 tbr, 50 tbn, 50 tbc
[h264_nvenc @ 0x2a5c120] The variable bitrate rate-control requires the 'qmin' and/or 'qmax' option set.
Output #0, matroska, to 'Output/NVENCh264/encoded/old_town_cross_2160p50llhp10000k.mkv':
  Metadata:
    encoder         : Lavf57.57.100
    Stream #0:0: Video: h264 (h264_nvenc) (Main) (H264 / 0x34363248), yuv420p, 3840x2160 [SAR 1:1 DAR 16:9], q=-1--1, 10000 kb/s, 50 fps, 1k tbn, 50 tbc
    Metadata:
      encoder         : Lavc57.66.101 h264_nvenc
    Side data:
      cpb: bitrate max/min/avg: 0/0/10000000 buffer size: 20000000 vbv_delay: -1
Stream mapping:
  Stream #0:0 -> #0:0 (rawvideo (native) -> h264 (h264_nvenc))
Press [q] to stop, [?] for help
frame=   11 fps=0.0 q=0.0 size=       0kB time=00:00:00.00 bitrate=N/A speed=   0x    frame=   29 fps= 28 q=0.0 size=       0kB time=00:00:00.00 bitrate=N/A speed=   0x    frame=   47 fps= 30 q=33.0 size=       1kB time=00:00:00.32 bitrate=  18.6kbits/s speed=0.207x    frame=   65 fps= 31 q=33.0 size=       1kB time=00:00:00.68 bitrate=   8.8kbits/s speed=0.33x    frame=   83 fps= 32 q=32.0 size=       1kB time=00:00:01.04 bitrate=   5.7kbits/s speed=0.404x    frame=  101 fps= 33 q=33.0 size=       1kB time=00:00:01.40 bitrate=   4.3kbits/s speed=0.452x    frame=  119 fps= 33 q=33.0 size=       1kB time=00:00:01.76 bitrate=   3.4kbits/s speed=0.488x    frame=  137 fps= 33 q=33.0 size=       1kB time=00:00:02.12 bitrate=   2.8kbits/s speed=0.514x    frame=  155 fps= 33 q=33.0 size=       1kB time=00:00:02.48 bitrate=   2.4kbits/s speed=0.535x    frame=  173 fps= 34 q=32.0 size=       1kB time=00:00:02.84 bitrate=   2.1kbits/s speed=0.551x    frame=  191 fps= 34 q=34.0 size=       1kB time=00:00:03.20 bitrate=   1.9kbits/s speed=0.565x    frame=  209 fps= 34 q=33.0 size=       1kB time=00:00:03.56 bitrate=   1.7kbits/s speed=0.576x    frame=  220 fps= 32 q=32.0 size=       1kB time=00:00:03.78 bitrate=   1.6kbits/s speed=0.557x    frame=  238 fps= 33 q=33.0 size=       1kB time=00:00:04.14 bitrate=   1.4kbits/s speed=0.567x    frame=  255 fps= 33 q=31.0 size=    5147kB time=00:00:04.48 bitrate=9410.2kbits/s speed=0.574x    frame=  273 fps= 33 q=31.0 size=    5147kB time=00:00:04.84 bitrate=8710.4kbits/s speed=0.582x    frame=  291 fps= 33 q=34.0 size=    6104kB time=00:00:05.20 bitrate=9615.0kbits/s speed=0.588x    frame=  309 fps= 33 q=32.0 size=    6104kB time=00:00:05.56 bitrate=8992.5kbits/s speed=0.594x    frame=  327 fps= 33 q=36.0 size=    6104kB time=00:00:05.92 bitrate=8445.8kbits/s speed= 0.6x    frame=  345 fps= 33 q=35.0 size=    6104kB time=00:00:06.28 bitrate=7961.7kbits/s speed=0.605x    frame=  363 fps= 33 q=35.0 size=    6104kB time=00:00:06.64 bitrate=7530.1kbits/s speed=0.61x    frame=  381 fps= 33 q=31.0 size=    6104kB time=00:00:07.00 bitrate=7142.9kbits/s speed=0.613x    frame=  399 fps= 33 q=33.0 size=    6104kB time=00:00:07.36 bitrate=6793.6kbits/s speed=0.617x    frame=  417 fps= 34 q=34.0 size=    6104kB time=00:00:07.72 bitrate=6476.8kbits/s speed=0.621x    frame=  435 fps= 34 q=34.0 size=    6104kB time=00:00:08.08 bitrate=6188.3kbits/s speed=0.624x    frame=  453 fps= 34 q=34.0 size=    6104kB time=00:00:08.44 bitrate=5924.4kbits/s speed=0.627x    frame=  471 fps= 34 q=33.0 size=    6104kB time=00:00:08.80 bitrate=5682.0kbits/s speed=0.63x    frame=  489 fps= 34 q=35.0 size=   11249kB time=00:00:09.16 bitrate=10059.6kbits/s speed=0.632x    frame=  500 fps= 34 q=34.0 Lsize=   12188kB time=00:00:09.98 bitrate=10003.8kbits/s speed=0.671x    
video:12184kB audio:0kB subtitle:0kB other streams:0kB global headers:0kB muxing overhead: 0.037511%
bench: utime=1.100s
bench: maxrss=1399236kB
